<?xml version="1.0" encoding="UTF-8"?>
<svg version="1.1" xmlns="http://www.w3.org/2000/svg" width="500" height="500">
<path d="M0 0 C1.06806885 0.01885254 1.06806885 0.01885254 2.15771484 0.03808594 C66.09705823 1.47098227 124.78655835 31.92498972 168.9453125 76.96875 C174.33927163 82.69295152 179.25289981 88.7195162 184.0625 94.9375 C184.90385498 96.02091675 184.90385498 96.02091675 185.76220703 97.1262207 C188.46790515 100.69062591 190.34499258 103.82684731 192 108 C192.99 108.33 193.98 108.66 195 109 C196.34692383 110.85083008 196.34692383 110.85083008 197.70703125 113.26953125 C198.21169922 114.15962891 198.71636719 115.04972656 199.23632812 115.96679688 C200.0165332 117.37541992 200.0165332 117.37541992 200.8125 118.8125 C201.57530273 120.15731445 201.57530273 120.15731445 202.35351562 121.52929688 C213.59665062 141.52184238 222.70563201 162.64206129 228 185 C228.18256348 185.75361816 228.36512695 186.50723633 228.55322266 187.28369141 C243.42860921 249.15855562 233.17490587 315.76928601 200.33984375 370.35327148 C198.93804811 372.60020865 197.48968383 374.81043846 196 377 C195.34 377.99 194.68 378.98 194 380 C193.34 380 192.68 380 192 380 C191.7321167 380.73951904 191.4642334 381.47903809 191.18823242 382.2409668 C190.03279755 384.92384527 188.78443589 386.85665988 186.98828125 389.14453125 C186.39466797 389.90443359 185.80105469 390.66433594 185.18945312 391.44726562 C184.26036133 392.61805664 184.26036133 392.61805664 183.3125 393.8125 C182.71244141 394.58142578 182.11238281 395.35035156 181.49414062 396.14257812 C178.45464377 400.01132546 175.35401996 403.82509759 172.16796875 407.57421875 C171.32721802 408.5636145 171.32721802 408.5636145 170.46948242 409.57299805 C169 411 169 411 167 411 C166.61714844 411.87640137 166.61714844 411.87640137 166.2265625 412.77050781 C164.87644513 415.22458262 163.41356275 416.75818437 161.375 418.671875 C160.66859375 419.33574219 159.9621875 419.99960937 159.234375 420.68359375 C158.49703125 421.36550781 157.7596875 422.04742187 157 422.75 C156.26265625 423.44738281 155.5253125 424.14476562 154.765625 424.86328125 C149.25697162 430 149.25697162 430 147 430 C147 430.66 147 431.32 147 432 C145.01288175 433.59214405 143.028436 435.05468441 140.9375 436.5 C140.31496338 436.93707275 139.69242676 437.37414551 139.05102539 437.82446289 C114.45801217 455 114.45801217 455 111 455 C111 455.66 111 456.32 111 457 C70.14748591 478.20632627 28.07865133 488.96467555 -18 488 C-18.6796582 487.98743164 -19.35931641 487.97486328 -20.05957031 487.96191406 C-57.02776372 487.08214647 -97.18529098 475.99941639 -129 457 C-129 456.34 -129 455.68 -129 455 C-129.67804688 454.75378906 -130.35609375 454.50757813 -131.0546875 454.25390625 C-134.58324967 452.75169344 -137.84112518 450.90312285 -141.125 448.9375 C-141.78226074 448.54481934 -142.43952148 448.15213867 -143.11669922 447.74755859 C-148.35112091 444.54683636 -152.99792495 440.97376616 -157.6328125 436.9453125 C-159.97657043 434.91350972 -159.97657043 434.91350972 -162.8046875 433.3671875 C-163.89136719 432.69042969 -163.89136719 432.69042969 -165 432 C-165 431.34 -165 430.68 -165 430 C-165.8971875 429.566875 -165.8971875 429.566875 -166.8125 429.125 C-169 428 -169 428 -172 426 C-172 425.34 -172 424.68 -172 424 C-172.88836548 423.5973291 -172.88836548 423.5973291 -173.79467773 423.18652344 C-177.47562748 421.20607223 -180.13833924 418.19886678 -183.0625 415.25 C-183.72717285 414.58186279 -184.3918457 413.91372559 -185.07666016 413.2253418 C-190.78612885 407.39151524 -195.87218502 401.22620291 -200.74023438 394.68310547 C-202.02088786 392.97209285 -203.32701159 391.28346012 -204.640625 389.59765625 C-211.40662801 380.82994646 -211.40662801 380.82994646 -212 377 C-212.66 377 -213.32 377 -214 377 C-215.3515625 374.98046875 -215.3515625 374.98046875 -217 372 C-217.69444228 370.7872617 -218.3898175 369.57505731 -219.0859375 368.36328125 C-219.84973787 367.01346164 -220.6127416 365.66319098 -221.375 364.3125 C-221.74882812 363.65572266 -222.12265625 362.99894531 -222.5078125 362.32226562 C-232.99156941 343.74231973 -241.08208193 323.76820329 -246 303 C-246.18256348 302.24638184 -246.36512695 301.49276367 -246.55322266 300.71630859 C-260.7284189 241.75391864 -252.58698757 176.71943694 -221.89453125 124.0859375 C-220.00133855 121.00218032 -218.02820016 117.99655137 -216 115 C-215.61416748 114.42427246 -215.22833496 113.84854492 -214.83081055 113.25537109 C-188.33929876 73.78129864 -154.30459952 42.35026837 -111 22 C-110.41105957 21.68885254 -109.82211914 21.37770508 -109.21533203 21.05712891 C-76.47621954 3.80238838 -36.5043164 -0.74807189 0 0 Z " fill="#FDFDFD" transform="translate(259,6)"/>
<path d="M0 0 C83.16 0 166.32 0 252 0 C258.18549346 58.76218787 258.18549346 58.76218787 258 70 C255.03 70 252.06 70 249 70 C248.87995605 69.36610352 248.75991211 68.73220703 248.63623047 68.07910156 C244.84713777 45.43249728 244.84713777 45.43249728 231 28 C218.04946067 20.04047457 205.56675135 18.68099006 190.4987793 18.77294922 C188.57935516 18.77251114 188.57935516 18.77251114 186.62115479 18.77206421 C183.15710077 18.77149708 179.69318903 18.78314594 176.2291677 18.79721212 C172.59238669 18.80982788 168.9556014 18.81089844 165.31880188 18.81326294 C158.45204776 18.81944617 151.58535833 18.83581362 144.71863252 18.85596192 C136.89261243 18.87841999 129.06658904 18.88933911 121.24054468 18.89935279 C105.16032542 18.92018315 89.080171 18.9552968 73 19 C74.40199033 20.57179073 75.80604673 22.14173869 77.2109375 23.7109375 C77.99259277 24.58540527 78.77424805 25.45987305 79.57958984 26.36083984 C81.86586596 28.8537433 84.21501823 31.2521621 86.625 33.625 C89.99023908 36.94366138 93.11329404 40.38217637 96.1875 43.96875 C98.2109288 46.23638572 100.33653347 48.3657695 102.5 50.5 C105.9071879 53.86114482 109.07458174 57.33701203 112.1875 60.96875 C114.2109288 63.23638572 116.33653347 65.3657695 118.5 67.5 C121.26560408 70.22829407 123.91287031 72.98516834 126.4375 75.9375 C129.94349685 80.02918541 133.75461891 83.76966883 137.5859375 87.5546875 C140.28751294 90.29123479 142.79078735 93.14979366 145.2890625 96.0703125 C147.11799863 98.13308521 149.03580458 100.0659072 151 102 C153.55869259 104.51955389 155.98170611 107.08118782 158.3125 109.8125 C162.90704568 115.16567997 167.97451105 120.0563002 173 125 C171.89238708 128.32283876 171.09173548 129.0006492 168.4609375 131.16796875 C163.94715482 135.00036894 159.78603346 139.10357978 155.625 143.3125 C154.85623535 144.08505127 154.0874707 144.85760254 153.29541016 145.65356445 C150.86114235 148.09994182 148.43015894 150.5495414 146 153 C142.79463822 156.23213688 139.58585927 159.46082535 136.375 162.6875 C135.293396 163.78155151 135.293396 163.78155151 134.18994141 164.89770508 C130.25498813 168.85137883 126.21602914 172.59158171 121.99194336 176.23291016 C118.45864965 179.36736044 115.16262784 182.73548236 111.84375 186.09375 C111.0971814 186.84410522 110.35061279 187.59446045 109.5814209 188.36755371 C107.21847975 190.7425992 104.8588263 193.12086817 102.5 195.5 C99.38839354 198.63839217 96.27336245 201.77332745 93.15625 204.90625 C92.45705444 205.6137439 91.75785889 206.32123779 91.03747559 207.0501709 C90.36317505 207.72777466 89.68887451 208.40537842 88.99414062 209.10351562 C88.41426392 209.68862915 87.83438721 210.27374268 87.23693848 210.87658691 C85.32527071 212.69123689 83.37421457 214.40618013 81.37536621 216.12243652 C76.34919555 220.49412269 71.68479716 225.20592683 67 229.9375 C65.69482422 231.24944336 65.69482422 231.24944336 64.36328125 232.58789062 C62.23986451 234.72297449 60.11883622 236.86037205 58 239 C76.02140786 239.07045767 94.04277938 239.12316652 112.06429577 239.15543652 C120.43426845 239.17082632 128.80415495 239.19176252 137.17407227 239.22631836 C144.47954715 239.25646488 151.78495956 239.27563209 159.09049493 239.28226548 C162.94942335 239.28613557 166.80817321 239.29506031 170.66704369 239.31719017 C212.0805527 240.16019117 212.0805527 240.16019117 248 222 C255.61630394 214.3490765 260.87923955 202.2220827 264 192 C266.97 192.33 269.94 192.66 273 193 C274 196 274 196 271 212 C267.37 233.78 263.74 255.56 260 278 C174.2 278 88.4 278 0 278 C0 269.08790915 0 269.08790915 3.60644531 265.46153259 C4.12819336 264.97793777 4.64994141 264.49434296 5.1875 263.99609375 C5.72342773 263.46911392 6.25935547 262.94213409 6.81152344 262.39918518 C8.5230775 260.72556747 10.26053923 259.08204157 12 257.4375 C13.13849639 256.3306015 14.27523397 255.22189094 15.41015625 254.11132812 C19.81418953 249.8280278 24.25685827 245.62672288 28.90820312 241.61157227 C33.02727901 238.02744329 36.88357801 234.22747742 40.71875 230.34375 C41.42092651 229.63778687 42.12310303 228.93182373 42.84655762 228.20446777 C45.06684603 225.97208642 47.28383955 223.73647889 49.5 221.5 C52.42409479 218.54909622 55.35163057 215.60166797 58.28125 212.65625 C58.936698 211.99250366 59.592146 211.32875732 60.26745605 210.64489746 C63.41079927 207.48518371 66.59691873 204.43864177 69.97265625 201.52734375 C74.23633716 197.84663747 78.19847297 193.91099955 82.15625 189.90625 C82.9028186 189.15589478 83.64938721 188.40553955 84.4185791 187.63244629 C86.78152025 185.2574008 89.1411737 182.87913183 91.5 180.5 C94.61160646 177.36160783 97.72663755 174.22667255 100.84375 171.09375 C101.54294556 170.3862561 102.24214111 169.67876221 102.96252441 168.9498291 C106.91555164 164.97743702 110.96724153 161.19268502 115.22546387 157.54844666 C117.94302219 155.17712605 120.47411262 152.63463602 123 150.0625 C123.73283203 149.32290039 123.73283203 149.32290039 124.48046875 148.56835938 C125.65603525 147.38126771 126.82838826 146.19099502 128 145 C126.64768813 141.97022571 125.14519457 139.91527387 122.76953125 137.609375 C122.1348291 136.98627441 121.50012695 136.36317383 120.84619141 135.72119141 C120.17507324 135.07069824 119.50395508 134.42020508 118.8125 133.75 C114.22571653 129.24101356 109.75315566 124.73835362 105.6015625 119.8203125 C102.94569029 116.80168701 100.0407324 114.03344981 97.1796875 111.2109375 C95.23766452 109.24107189 93.41938329 107.22846367 91.625 105.125 C88.73785219 101.75442279 85.65753382 98.61495793 82.5 95.5 C78.75969175 91.81005779 75.21760652 88.02496304 71.80859375 84.02734375 C68.82471996 80.68256946 65.59380268 77.58664843 62.40625 74.4375 C59.75040247 71.74716094 57.29864568 68.93426475 54.84375 66.0625 C52.65203687 63.61075311 50.33932896 61.31114427 48 59 C44.43599698 55.47893677 41.09695832 51.86813992 37.84375 48.0625 C35.65203687 45.61075311 33.33932896 43.31114427 31 41 C27.43599698 37.47893677 24.09695832 33.86813992 20.84375 30.0625 C17.8550581 26.71921754 14.62681598 23.61917189 11.4375 20.46875 C8.61887461 17.61398838 5.97667818 14.64571863 3.375 11.59375 C2.30150314 10.34946955 1.16203041 9.16203041 0 8 C0 5.36 0 2.72 0 0 Z " fill="#030303" transform="translate(113,111)"/>
<path d="M0 0 C4.48355057 6.72532586 4.30050602 15.15345395 4 23 C3.67 23 3.34 23 3 23 C1.02462968 15.36190145 0.42522771 7.8667126 0 0 Z " fill="#958F8F" transform="translate(8,277)"/>
<path d="M0 0 C-1.7578125 0.9765625 -3.515625 1.953125 -5.2734375 2.9296875 C-7.1612614 4.00897274 -7.1612614 4.00897274 -9 6 C-11.62113708 6 -13.50935112 5.68707555 -16 5 C-12.04440305 2.32040206 -4.70297318 -2.35148659 0 0 Z " fill="#B2B0B0" transform="translate(167,22)"/>
<path d="M0 0 C0.33 0 0.66 0 1 0 C0.88490339 1.41750563 0.75746342 2.83401169 0.625 4.25 C0.55539062 5.03890625 0.48578125 5.8278125 0.4140625 6.640625 C0 9 0 9 -2 13 C-2.33 10.03 -2.66 7.06 -3 4 C-2.34 3.67 -1.68 3.34 -1 3 C-0.67 2.01 -0.34 1.02 0 0 Z " fill="#ACA9A7" transform="translate(486,304)"/>
<path d="M0 0 C1.9375 0.75 1.9375 0.75 4 2 C4.875 4 4.875 4 5 6 C4.34 6.66 3.68 7.32 3 8 C2.01 5.36 1.02 2.72 0 0 Z " fill="#B1B0AC" transform="translate(23,339)"/>
<path d="M0 0 C1.32 1.65 2.64 3.3 4 5 C2.02 5.99 2.02 5.99 0 7 C-0.66 6.34 -1.32 5.68 -2 5 C-1.34 3.35 -0.68 1.7 0 0 Z " fill="#C0BBB9" transform="translate(459,125)"/>
<path d="M0 0 C0.66 0.33 1.32 0.66 2 1 C-0.31 3.31 -2.62 5.62 -5 8 C-5.66 7.34 -6.32 6.68 -7 6 C-4.69 4.02 -2.38 2.04 0 0 Z " fill="#E2E1DF" transform="translate(99,58)"/>
</svg>
